<svg width="107" height="18" viewBox="0 0 107 18" fill="none" xmlns="http://www.w3.org/2000/svg">
<path d="M4.832 17H0.68V0.991999H4.832L12.488 10.784V0.991999H16.64V17H12.488L4.832 7.208V17ZM36.9365 9.008C36.9365 11.376 36.0965 13.368 34.4165 14.984C32.7525 16.568 30.6485 17.36 28.1045 17.36C25.5605 17.36 23.4565 16.568 21.7925 14.984C20.1125 13.368 19.2725 11.376 19.2725 9.008C19.2725 7.904 19.4805 6.824 19.8965 5.768C20.3285 4.712 20.9605 3.792 21.7925 3.008C23.4565 1.424 25.5605 0.631999 28.1045 0.631999C30.6485 0.631999 32.7525 1.424 34.4165 3.008C35.2485 3.792 35.8725 4.712 36.2885 5.768C36.7205 6.824 36.9365 7.904 36.9365 9.008ZM28.1045 4.664C26.7925 4.664 25.7125 5.088 24.8645 5.936C24.0165 6.768 23.5925 7.816 23.5925 9.08C23.5925 10.248 24.0165 11.24 24.8645 12.056C25.7445 12.904 26.8245 13.328 28.1045 13.328C29.4165 13.328 30.4885 12.912 31.3205 12.08C32.1845 11.216 32.6165 10.192 32.6165 9.008C32.6165 7.792 32.1845 6.768 31.3205 5.936C30.4245 5.088 29.3525 4.664 28.1045 4.664ZM49.0423 4.52H45.6343V17H41.4823V4.52H38.0743V0.991999H49.0423V4.52ZM59.9791 0.991999V4.52H55.0351V7.184H59.7151V10.712H55.0351V13.472H59.9791V17H50.8831V0.991999H59.9791ZM73.3773 17L72.3933 14.312H66.5853L65.5053 17H61.1133L67.2573 0.991999H71.7933L77.8173 17H73.3773ZM67.7373 11.144H71.2893L69.4893 5.96L67.7373 11.144ZM86.4324 11.696H83.8164V17H79.6644V0.991999H86.2884C88.0004 0.991999 89.3524 1.472 90.3444 2.432C91.3364 3.392 91.8324 4.688 91.8324 6.32C91.8324 8.048 91.3604 9.376 90.4164 10.304C89.4724 11.232 88.1444 11.696 86.4324 11.696ZM83.8164 4.352V8.336H85.2084C86.0084 8.336 86.5924 8.168 86.9604 7.832C87.3124 7.528 87.4884 7.04 87.4884 6.368C87.4884 5.728 87.3284 5.248 87.0084 4.928C86.6404 4.544 86.0484 4.352 85.2324 4.352H83.8164ZM100.8 11.696H98.1836V17H94.0316V0.991999H100.656C102.368 0.991999 103.72 1.472 104.712 2.432C105.704 3.392 106.2 4.688 106.2 6.32C106.2 8.048 105.728 9.376 104.784 10.304C103.84 11.232 102.512 11.696 100.8 11.696ZM98.1836 4.352V8.336H99.5756C100.376 8.336 100.96 8.168 101.328 7.832C101.68 7.528 101.856 7.04 101.856 6.368C101.856 5.728 101.696 5.248 101.376 4.928C101.008 4.544 100.416 4.352 99.5996 4.352H98.1836Z" fill="#2B3049"/>
</svg>
